<svg version="1.1" id="Layer_1" xmlns="http://www.w3.org/2000/svg" xmlns:xlink="http://www.w3.org/1999/xlink" x="0px" y="0px" viewBox="0 0 24 24" style="enable-background:new 0 0 24 24;" xml:space="preserve">
<path fill="#4D4D4D" d="M19.5,16.1V8.7H7.9v7.5L19.5,16.1 M19.5,4.5c0.9,0,1.6,0.7,1.6,1.6v9.9c0,0.9-0.7,1.6-1.6,1.6H7.9 c-0.9,0-1.6-0.7-1.6-1.6V6.2c0-0.9,0.7-1.6,1.6-1.6h0.8V2.9h1.6v1.6H17V2.9h1.6v1.6H19.5 M4.5,19.5h11.6v1.6H4.5 c-0.9,0-1.6-0.7-1.6-1.6V9.5h1.6V19.5 M17.8,14.5h-3.3v-3.3h3.3V14.5z"/>
</svg>
