<?xml version="1.0" encoding="utf-8"?>
<!-- Generator: Adobe Illustrator 20.1.0, SVG Export Plug-In . SVG Version: 6.00 Build 0)  -->
<svg version="1.1" id="Layer_1" xmlns="http://www.w3.org/2000/svg" xmlns:xlink="http://www.w3.org/1999/xlink" x="0px" y="0px"
	 viewBox="0 0 24 24" style="enable-background:new 0 0 24 24;" xml:space="preserve">
<style type="text/css">
	.st0{fill:#FFFFFF;stroke:#4D4D4D;stroke-miterlimit:10;}
	.st1{fill:none;stroke:#4D4D4D;stroke-width:0.75;stroke-miterlimit:10;}
	.st2{fill:none;stroke:#4D4D4D;stroke-width:1.5;stroke-miterlimit:10;}
</style>
<g>
	<rect x="5.8" y="2.6" class="st0" width="15.6" height="15.3"/>
	<line class="st1" x1="18.3" y1="5.7" x2="18.3" y2="17.9"/>
	<line class="st1" x1="15.1" y1="5.7" x2="15.1" y2="17.9"/>
	<line class="st1" x1="12" y1="5.7" x2="12" y2="17.9"/>
	<line class="st1" x1="8.9" y1="5.7" x2="8.9" y2="17.9"/>
	<line class="st2" x1="5.8" y1="5.7" x2="21.4" y2="5.7"/>
	<line class="st1" x1="5.8" y1="8.7" x2="21.4" y2="8.7"/>
	<line class="st1" x1="5.8" y1="11.8" x2="21.4" y2="11.8"/>
	<line class="st1" x1="5.8" y1="14.9" x2="21.4" y2="14.9"/>
	<rect x="5.8" y="2.6" class="st2" width="15.6" height="15.3"/>
	<rect x="2.6" y="6.1" class="st0" width="15.6" height="15.3"/>
	<line class="st1" x1="15.1" y1="9.1" x2="15.1" y2="21.4"/>
	<line class="st1" x1="12" y1="9.1" x2="12" y2="21.4"/>
	<line class="st1" x1="8.9" y1="9.1" x2="8.9" y2="21.4"/>
	<line class="st1" x1="5.7" y1="9.1" x2="5.7" y2="21.4"/>
	<line class="st2" x1="2.6" y1="9.1" x2="18.2" y2="9.1"/>
	<line class="st1" x1="2.6" y1="12.2" x2="18.2" y2="12.2"/>
	<line class="st1" x1="2.6" y1="15.3" x2="18.2" y2="15.3"/>
	<line class="st1" x1="2.6" y1="18.3" x2="18.2" y2="18.3"/>
	<rect x="2.6" y="6.1" class="st2" width="15.6" height="15.3"/>
</g>
</svg>
